<?xml version="1.0" encoding="utf-8"?>
<svg viewBox="0 0 500 500" style="shape-rendering: geometricprecision;" xmlns="http://www.w3.org/2000/svg">
  <g transform="matrix(0.5303769111633301, 0, 0, 0.5658650398254395, -21.757644653320312, -58.70857238769531)" style="">
    <path style="opacity: 1;" d="M 659.5,164.5 C 558.001,165.499 456.335,165.833 354.5,165.5C 351.647,166.887 348.647,168.054 345.5,169C 344.123,174.025 346.123,176.192 351.5,175.5C 351.5,174.5 351.5,173.5 351.5,172.5C 362.167,172.5 372.833,172.5 383.5,172.5C 383.5,173.5 383.5,174.5 383.5,175.5C 399.5,175.5 415.5,175.5 431.5,175.5C 431.5,174.5 431.5,173.5 431.5,172.5C 436.833,172.5 442.167,172.5 447.5,172.5C 447.5,173.5 447.5,174.5 447.5,175.5C 463.5,175.5 479.5,175.5 495.5,175.5C 495.5,180.833 495.5,186.167 495.5,191.5C 490.167,191.5 484.833,191.5 479.5,191.5C 479.5,186.5 479.5,181.5 479.5,176.5C 458.167,176.5 436.833,176.5 415.5,176.5C 415.5,181.5 415.5,186.5 415.5,191.5C 420.833,191.5 426.167,191.5 431.5,191.5C 431.5,202.167 431.5,212.833 431.5,223.5C 426.167,223.5 420.833,223.5 415.5,223.5C 415.5,228.833 415.5,234.167 415.5,239.5C 399.5,239.5 383.5,239.5 367.5,239.5C 367.5,244.5 367.5,249.5 367.5,254.5C 362.167,254.5 356.833,254.5 351.5,254.5C 351.5,249.5 351.5,244.5 351.5,239.5C 346.167,239.5 340.833,239.5 335.5,239.5C 335.5,244.833 335.5,250.167 335.5,255.5C 330.477,257.651 325.143,258.651 319.5,258.5C 319.5,257.5 319.5,256.5 319.5,255.5C 314.167,255.5 308.833,255.5 303.5,255.5C 303.5,244.833 303.5,234.167 303.5,223.5C 308.833,223.5 314.167,223.5 319.5,223.5C 319.5,218.167 319.5,212.833 319.5,207.5C 316.5,207.5 313.5,207.5 310.5,207.5C 310.351,206.448 310.517,205.448 311,204.5C 316.167,201.234 317.833,196.567 316,190.5C 310.103,190.413 307.436,193.08 308,198.5C 307.667,198.167 307.333,197.833 307,197.5C 306.252,199.751 304.752,201.084 302.5,201.5C 310.208,181.632 324.542,169.465 345.5,165C 450.166,164.5 554.833,164.333 659.5,164.5 Z"/>
  </g>
  <g transform="matrix(0.5303769111633301, 0, 0, 0.5658650398254395, -21.757644653320312, -58.70857238769531)" style="">
    <path style="opacity: 1;" d="M 659.5,164.5 C 683.431,165.885 700.265,177.552 710,199.5C 711.961,204.677 713.294,210.01 714,215.5C 714.5,251.165 714.667,286.832 714.5,322.5C 704.833,322.5 695.167,322.5 685.5,322.5C 685.5,308.167 685.5,293.833 685.5,279.5C 685.666,275.486 685.499,271.486 685,267.5C 684.097,266.299 682.931,265.465 681.5,265C 565.5,264.5 449.5,264.333 333.5,264.5C 451.344,263.849 564.011,263.183 671.5,262.5C 671.5,261.5 671.5,260.5 671.5,259.5C 675.548,259.605 679.548,259.272 683.5,258.5C 683.349,255.282 682.516,254.949 681,257.5C 678.175,255.812 675.009,254.979 671.5,255C 655.503,254.5 639.503,254.333 623.5,254.5C 623.5,249.5 623.5,244.5 623.5,239.5C 607.5,239.5 591.5,239.5 575.5,239.5C 575.831,231.804 575.497,224.138 574.5,216.5C 573.186,215.687 572.019,214.687 571,213.5C 570.29,214.973 569.124,215.64 567.5,215.5C 567.5,218.167 567.5,220.833 567.5,223.5C 565.833,223.5 564.167,223.5 562.5,223.5C 565.749,217.838 564.749,213.004 559.5,209C 524.502,208.5 489.502,208.333 454.5,208.5C 488.664,207.668 522.998,207.168 557.5,207C 559.414,202.142 560.081,196.975 559.5,191.5C 586.167,191.5 612.833,191.5 639.5,191.5C 639.5,186.5 639.5,181.5 639.5,176.5C 616.422,178.101 605.755,177.768 607.5,175.5C 607.5,174.5 607.5,173.5 607.5,172.5C 612.833,172.5 618.167,172.5 623.5,172.5C 623.5,173.5 623.5,174.5 623.5,175.5C 628.833,175.5 634.167,175.5 639.5,175.5C 639.5,174.5 639.5,173.5 639.5,172.5C 644.833,172.5 650.167,172.5 655.5,172.5C 655.5,173.5 655.5,174.5 655.5,175.5C 660.833,175.5 666.167,175.5 671.5,175.5C 671.5,173.167 671.5,170.833 671.5,168.5C 660.833,167.833 650.167,167.167 639.5,166.5C 639.5,167.833 639.5,169.167 639.5,170.5C 634.167,170.5 628.833,170.5 623.5,170.5C 623.5,169.5 623.5,168.5 623.5,167.5C 618.167,167.5 612.833,167.5 607.5,167.5C 607.5,168.5 607.5,169.5 607.5,170.5C 602.167,170.5 596.833,170.5 591.5,170.5C 591.5,169.167 591.5,167.833 591.5,166.5C 581.494,166.334 571.494,166.5 561.5,167C 560.027,167.71 559.36,168.876 559.5,170.5C 522.167,170.5 484.833,170.5 447.5,170.5C 447.5,169.167 447.5,167.833 447.5,166.5C 442.167,166.5 436.833,166.5 431.5,166.5C 431.5,167.833 431.5,169.167 431.5,170.5C 423.452,170.494 415.452,169.828 407.5,168.5C 399.548,169.828 391.548,170.494 383.5,170.5C 383.5,169.5 383.5,168.5 383.5,167.5C 373.665,167.083 363.999,166.416 354.5,165.5C 456.335,165.833 558.001,165.499 659.5,164.5 Z"/>
  </g>
  <g transform="matrix(0.5303769111633301, 0, 0, 0.5658650398254395, -21.757644653320312, -58.70857238769531)" style="">
    <path style="opacity:1" fill="#f6f8f8" d="M 454.5,208.5 C 489.502,208.333 524.502,208.5 559.5,209C 564.749,213.004 565.749,217.838 562.5,223.5C 561.118,224.801 559.452,225.634 557.5,226C 523.167,226.667 488.833,226.667 454.5,226C 448.076,222.034 446.909,216.867 451,210.5C 452.113,209.695 453.279,209.028 454.5,208.5 Z"/>
  </g>
  <g transform="matrix(0.5303769111633301, 0, 0, 0.5658650398254395, -21.757644653320312, -58.70857238769531)" style="">
    <path style="opacity: 1;" d="M 354.5,165.5 C 363.999,166.416 373.665,167.083 383.5,167.5C 383.5,168.5 383.5,169.5 383.5,170.5C 391.548,170.494 399.548,169.828 407.5,168.5C 415.452,169.828 423.452,170.494 431.5,170.5C 431.5,169.167 431.5,167.833 431.5,166.5C 436.833,166.5 442.167,166.5 447.5,166.5C 447.5,167.833 447.5,169.167 447.5,170.5C 484.833,170.5 522.167,170.5 559.5,170.5C 559.36,168.876 560.027,167.71 561.5,167C 571.494,166.5 581.494,166.334 591.5,166.5C 591.5,167.833 591.5,169.167 591.5,170.5C 596.833,170.5 602.167,170.5 607.5,170.5C 607.5,169.5 607.5,168.5 607.5,167.5C 612.833,167.5 618.167,167.5 623.5,167.5C 623.5,168.5 623.5,169.5 623.5,170.5C 628.833,170.5 634.167,170.5 639.5,170.5C 639.5,169.167 639.5,167.833 639.5,166.5C 650.167,167.167 660.833,167.833 671.5,168.5C 671.5,170.833 671.5,173.167 671.5,175.5C 666.167,175.5 660.833,175.5 655.5,175.5C 655.5,174.5 655.5,173.5 655.5,172.5C 650.167,172.5 644.833,172.5 639.5,172.5C 639.5,173.5 639.5,174.5 639.5,175.5C 634.167,175.5 628.833,175.5 623.5,175.5C 623.5,174.5 623.5,173.5 623.5,172.5C 618.167,172.5 612.833,172.5 607.5,172.5C 607.5,173.5 607.5,174.5 607.5,175.5C 605.755,177.768 616.422,178.101 639.5,176.5C 639.5,181.5 639.5,186.5 639.5,191.5C 612.833,191.5 586.167,191.5 559.5,191.5C 560.081,196.975 559.414,202.142 557.5,207C 522.998,207.168 488.664,207.668 454.5,208.5C 453.279,209.028 452.113,209.695 451,210.5C 446.909,216.867 448.076,222.034 454.5,226C 488.833,226.667 523.167,226.667 557.5,226C 559.452,225.634 561.118,224.801 562.5,223.5C 564.167,223.5 565.833,223.5 567.5,223.5C 567.5,220.833 567.5,218.167 567.5,215.5C 569.124,215.64 570.29,214.973 571,213.5C 572.019,214.687 573.186,215.687 574.5,216.5C 575.497,224.138 575.831,231.804 575.5,239.5C 591.5,239.5 607.5,239.5 623.5,239.5C 623.5,244.5 623.5,249.5 623.5,254.5C 639.503,254.333 655.503,254.5 671.5,255C 675.009,254.979 678.175,255.812 681,257.5C 682.516,254.949 683.349,255.282 683.5,258.5C 679.548,259.272 675.548,259.605 671.5,259.5C 671.5,260.5 671.5,261.5 671.5,262.5C 564.011,263.183 451.344,263.849 333.5,264.5C 328.032,266.578 326.032,270.578 327.5,276.5C 328.16,313.515 327.494,350.182 325.5,386.5C 316.833,386.5 308.167,386.5 299.5,386.5C 299.5,328.5 299.5,270.5 299.5,212.5C 299.5,211.5 299.5,210.5 299.5,209.5C 300.512,206.743 301.512,204.076 302.5,201.5C 304.752,201.084 306.252,199.751 307,197.5C 307.333,197.833 307.667,198.167 308,198.5C 307.436,193.08 310.103,190.413 316,190.5C 317.833,196.567 316.167,201.234 311,204.5C 310.517,205.448 310.351,206.448 310.5,207.5C 313.5,207.5 316.5,207.5 319.5,207.5C 319.5,212.833 319.5,218.167 319.5,223.5C 314.167,223.5 308.833,223.5 303.5,223.5C 303.5,234.167 303.5,244.833 303.5,255.5C 308.833,255.5 314.167,255.5 319.5,255.5C 319.5,256.5 319.5,257.5 319.5,258.5C 325.143,258.651 330.477,257.651 335.5,255.5C 335.5,250.167 335.5,244.833 335.5,239.5C 340.833,239.5 346.167,239.5 351.5,239.5C 351.5,244.5 351.5,249.5 351.5,254.5C 356.833,254.5 362.167,254.5 367.5,254.5C 367.5,249.5 367.5,244.5 367.5,239.5C 383.5,239.5 399.5,239.5 415.5,239.5C 415.5,234.167 415.5,228.833 415.5,223.5C 420.833,223.5 426.167,223.5 431.5,223.5C 431.5,212.833 431.5,202.167 431.5,191.5C 426.167,191.5 420.833,191.5 415.5,191.5C 415.5,186.5 415.5,181.5 415.5,176.5C 436.833,176.5 458.167,176.5 479.5,176.5C 479.5,181.5 479.5,186.5 479.5,191.5C 484.833,191.5 490.167,191.5 495.5,191.5C 495.5,186.167 495.5,180.833 495.5,175.5C 479.5,175.5 463.5,175.5 447.5,175.5C 447.5,174.5 447.5,173.5 447.5,172.5C 442.167,172.5 436.833,172.5 431.5,172.5C 431.5,173.5 431.5,174.5 431.5,175.5C 415.5,175.5 399.5,175.5 383.5,175.5C 383.5,174.5 383.5,173.5 383.5,172.5C 372.833,172.5 362.167,172.5 351.5,172.5C 351.5,173.5 351.5,174.5 351.5,175.5C 346.123,176.192 344.123,174.025 345.5,169C 348.647,168.054 351.647,166.887 354.5,165.5 Z"/>
  </g>
  <g transform="matrix(0.5303769111633301, 0, 0, 0.5658650398254395, -21.757644653320312, -58.70857238769531)" style="">
    <path style="opacity: 1; fill: rgb(253, 213, 8);" d="M 271.5,295.5 C 274.625,294.521 277.958,294.187 281.5,294.5C 281.5,301.167 281.5,307.833 281.5,314.5C 277.958,314.813 274.625,314.479 271.5,313.5C 274.5,313.5 277.5,313.5 280.5,313.5C 280.5,307.5 280.5,301.5 280.5,295.5C 277.5,295.5 274.5,295.5 271.5,295.5 Z"/>
  </g>
  <g transform="matrix(0.5303769111633301, 0, 0, 0.5658650398254395, -21.757644653320312, -58.70857238769531)" style="">
    <path style="opacity: 1;" d="M 299.5,209.5 C 299.5,210.5 299.5,211.5 299.5,212.5C 298.501,270.331 298.168,328.331 298.5,386.5C 297.833,357.169 297.5,327.669 297.5,298C 297.5,268.159 298.167,238.659 299.5,209.5 Z"/>
  </g>
  <g transform="matrix(0.5303769111633301, 0, 0, 0.5658650398254395, -21.757644653320312, -58.70857238769531)" style="">
    <path style="opacity: 1; fill: rgb(253, 213, 8);" d="M 271.5,295.5 C 274.5,295.5 277.5,295.5 280.5,295.5C 280.5,301.5 280.5,307.5 280.5,313.5C 277.5,313.5 274.5,313.5 271.5,313.5C 266.406,312.512 264.073,309.345 264.5,304C 264.474,299.195 266.808,296.361 271.5,295.5 Z"/>
  </g>
  <g transform="matrix(0.5303769111633301, 0, 0, 0.5658650398254395, -21.757644653320312, -58.70857238769531)" style="">
    <path style="opacity: 1; fill: rgb(253, 213, 8);" d="M 173.5,362.5 C 173.53,363.497 173.03,364.164 172,364.5C 169.663,364.101 167.163,364.101 164.5,364.5C 164.5,365.5 164.5,366.5 164.5,367.5C 161.833,367.5 159.167,367.5 156.5,367.5C 157.62,357.06 157.62,346.394 156.5,335.5C 157.5,335.5 158.5,335.5 159.5,335.5C 160.026,330.891 159.359,326.557 157.5,322.5C 157.846,321.304 158.346,321.304 159,322.5C 159.483,321.552 159.649,320.552 159.5,319.5C 155.458,319.296 154.125,320.963 155.5,324.5C 155.167,325.167 154.833,325.833 154.5,326.5C 152.471,325.371 152.137,325.871 153.5,328C 151.926,329.826 151.093,331.993 151,334.5C 150.817,342.745 150.317,350.912 149.5,359C 150.022,359.561 150.355,360.228 150.5,361C 147.654,363.168 145.487,365.335 144,367.5C 142.451,364.997 140.784,364.997 139,367.5C 137.418,369.624 137.251,371.79 138.5,374C 136.304,375.222 134.804,377.056 134,379.5C 133.8,385.507 134.133,391.507 135,397.5C 137.277,399.113 138.777,401.28 139.5,404C 140.793,404.49 142.127,404.657 143.5,404.5C 143.5,405.5 143.5,406.5 143.5,407.5C 144.873,407.343 146.207,407.51 147.5,408C 149.032,410.034 150.365,412.201 151.5,414.5C 150.248,426.151 150.415,437.818 152,449.5C 152.709,453.041 154.876,455.041 158.5,455.5C 161.916,454.25 164.583,452.083 166.5,449C 165.513,437.915 165.179,426.748 165.5,415.5C 163.833,415.5 162.167,415.5 160.5,415.5C 160.165,423.524 159.498,431.524 158.5,439.5C 157.792,430.985 157.125,422.485 156.5,414C 156.645,413.228 156.978,412.561 157.5,412C 155.194,410.207 154.861,408.04 156.5,405.5C 157.325,404.614 158.325,404.281 159.5,404.5C 159.184,407.978 159.684,411.312 161,414.5C 163.092,411.319 165.425,408.319 168,405.5C 170.288,405.737 172.788,405.737 175.5,405.5C 175.5,403.5 175.5,401.5 175.5,399.5C 177.5,399.5 179.5,399.5 181.5,399.5C 182.604,394.755 183.604,389.922 184.5,385C 184.167,383.167 183.833,381.333 183.5,379.5C 181.445,377.445 179.779,375.112 178.5,372.5C 178.994,370.974 179.661,369.641 180.5,368.5C 183.081,371.32 184.914,374.654 186,378.5C 188.006,393.827 182.173,404.827 168.5,411.5C 167.669,424.994 167.169,438.661 167,452.5C 163.67,458.283 158.836,459.949 152.5,457.5C 151.139,455.972 149.972,454.305 149,452.5C 148.667,438.833 148.333,425.167 148,411.5C 130.912,402.171 126.245,388.504 134,370.5C 137.459,366.2 141.626,362.866 146.5,360.5C 148.468,352.567 149.135,344.234 148.5,335.5C 148.5,335.167 148.5,334.833 148.5,334.5C 151.84,320.829 159.173,309.829 170.5,301.5C 176.05,298.26 182.05,296.093 188.5,295C 206.833,294.333 225.167,294.333 243.5,295C 245.329,295.273 246.829,296.107 248,297.5C 252.292,304.585 250.792,310.085 243.5,314C 225.5,314.333 207.5,314.667 189.5,315C 183.931,317.035 179.097,320.202 175,324.5C 168.04,335.126 165.54,346.793 167.5,359.5C 169.97,359.654 171.97,360.654 173.5,362.5 Z"/>
  </g>
  <g transform="matrix(0.5303769111633301, 0, 0, 0.5658650398254395, -21.757644653320312, -58.70857238769531)" style="">
    <path style="opacity: 1; fill: rgb(237, 26, 59);" d="M 844.5,243.5 C 878.522,242.986 897.855,259.486 902.5,293C 901.995,304.529 898.495,315.029 892,324.5C 882.621,337.552 872.121,349.718 860.5,361C 857.615,363.394 854.615,365.561 851.5,367.5C 847.315,365.826 843.815,363.159 841,359.5C 831.624,349.126 822.624,338.46 814,327.5C 798.591,306.804 797.591,285.471 811,263.5C 819.706,252.569 830.872,245.903 844.5,243.5 Z"/>
  </g>
  <g transform="matrix(0.5303769111633301, 0, 0, 0.5658650398254395, -21.757644653320312, -58.70857238769531)" style="">
    <path style="opacity:1" fill="#f9fafa" d="M 844.5,270.5 C 865.236,268.746 875.402,278.079 875,298.5C 870.81,312.669 861.31,318.835 846.5,317C 830.439,311.044 824.939,299.877 830,283.5C 833.329,277.43 838.162,273.096 844.5,270.5 Z"/>
  </g>
  <g transform="matrix(0.5303769111633301, 0, 0, 0.5658650398254395, -21.757644653320312, -58.70857238769531)" style="">
    <path style="opacity: 1;" d="M 299.5,212.5 C 299.5,270.5 299.5,328.5 299.5,386.5C 308.167,386.5 316.833,386.5 325.5,386.5C 325.5,386.833 325.5,387.167 325.5,387.5C 316.318,387.827 307.318,387.493 298.5,386.5C 298.168,328.331 298.501,270.331 299.5,212.5 Z"/>
  </g>
  <g transform="matrix(0.5303769111633301, 0, 0, 0.5658650398254395, -21.757644653320312, -58.70857238769531)" style="">
    <path style="opacity: 1;" d="M 327.5,276.5 C 328.451,277.919 328.784,279.585 328.5,281.5C 328.832,317.004 328.498,352.337 327.5,387.5C 326.833,387.5 326.167,387.5 325.5,387.5C 325.5,387.167 325.5,386.833 325.5,386.5C 327.494,350.182 328.16,313.515 327.5,276.5 Z"/>
  </g>
  <g transform="matrix(0.5303769111633301, 0, 0, 0.5658650398254395, -21.757644653320312, -58.70857238769531)" style="">
    <path style="opacity: 1; fill: rgb(253, 213, 8);" d="M 148.5,335.5 C 149.135,344.234 148.468,352.567 146.5,360.5C 147.139,352.067 147.806,343.734 148.5,335.5 Z"/>
  </g>
  <g transform="matrix(0.5303769111633301, 0, 0, 0.5658650398254395, -21.757644653320312, -58.70857238769531)" style="">
    <path style="opacity: 1; fill: rgb(253, 213, 8);" d="M 805.5,344.5 C 810.966,350.091 815.966,356.091 820.5,362.5C 815.36,363.488 810.026,363.821 804.5,363.5C 799.568,362.564 797.235,359.564 797.5,354.5C 796.887,348.453 799.554,345.12 805.5,344.5 Z"/>
  </g>
  <g transform="matrix(0.5303769111633301, 0, 0, 0.5658650398254395, -21.757644653320312, -58.70857238769531)" style="">
    <path style="opacity: 1; fill: rgb(253, 213, 8);" d="M 173.5,362.5 C 176.427,363.757 178.761,365.757 180.5,368.5C 179.661,369.641 178.994,370.974 178.5,372.5C 179.779,375.112 181.445,377.445 183.5,379.5C 183.833,381.333 184.167,383.167 184.5,385C 183.604,389.922 182.604,394.755 181.5,399.5C 179.5,399.5 177.5,399.5 175.5,399.5C 175.5,401.5 175.5,403.5 175.5,405.5C 172.788,405.737 170.288,405.737 168,405.5C 165.425,408.319 163.092,411.319 161,414.5C 159.684,411.312 159.184,407.978 159.5,404.5C 158.325,404.281 157.325,404.614 156.5,405.5C 154.861,408.04 155.194,410.207 157.5,412C 156.978,412.561 156.645,413.228 156.5,414C 157.125,422.485 157.792,430.985 158.5,439.5C 159.498,431.524 160.165,423.524 160.5,415.5C 162.167,415.5 163.833,415.5 165.5,415.5C 165.179,426.748 165.513,437.915 166.5,449C 164.583,452.083 161.916,454.25 158.5,455.5C 154.876,455.041 152.709,453.041 152,449.5C 150.415,437.818 150.248,426.151 151.5,414.5C 150.365,412.201 149.032,410.034 147.5,408C 146.207,407.51 144.873,407.343 143.5,407.5C 143.5,406.5 143.5,405.5 143.5,404.5C 142.127,404.657 140.793,404.49 139.5,404C 138.777,401.28 137.277,399.113 135,397.5C 134.133,391.507 133.8,385.507 134,379.5C 134.804,377.056 136.304,375.222 138.5,374C 137.251,371.79 137.418,369.624 139,367.5C 140.784,364.997 142.451,364.997 144,367.5C 145.487,365.335 147.654,363.168 150.5,361C 150.355,360.228 150.022,359.561 149.5,359C 150.317,350.912 150.817,342.745 151,334.5C 151.093,331.993 151.926,329.826 153.5,328C 152.137,325.871 152.471,325.371 154.5,326.5C 154.833,325.833 155.167,325.167 155.5,324.5C 154.125,320.963 155.458,319.296 159.5,319.5C 159.649,320.552 159.483,321.552 159,322.5C 158.346,321.304 157.846,321.304 157.5,322.5C 159.359,326.557 160.026,330.891 159.5,335.5C 158.5,335.5 157.5,335.5 156.5,335.5C 157.62,346.394 157.62,357.06 156.5,367.5C 159.167,367.5 161.833,367.5 164.5,367.5C 164.5,366.5 164.5,365.5 164.5,364.5C 167.163,364.101 169.663,364.101 172,364.5C 173.03,364.164 173.53,363.497 173.5,362.5 Z"/>
  </g>
  <g transform="matrix(0.5303769111633301, 0, 0, 0.5658650398254395, -21.757644653320312, -58.70857238769531)" style="">
    <path style="opacity: 1; fill: rgb(253, 213, 8);" d="M 558.5,343.5 C 565.175,343.334 571.842,343.5 578.5,344C 586.412,346.605 588.579,351.772 585,359.5C 584.167,361 583,362.167 581.5,363C 572.814,363.832 564.147,363.665 555.5,362.5C 549.509,355.103 550.509,348.77 558.5,343.5 Z"/>
  </g>
  <g transform="matrix(0.5303769111633301, 0, 0, 0.5658650398254395, -21.757644653320312, -58.70857238769531)" style="">
    <path style="opacity: 1; fill: rgb(253, 213, 8);" d="M 495.5,343.5 C 507.171,343.333 518.838,343.5 530.5,344C 538.033,346.9 540.199,352.067 537,359.5C 535.786,361.049 534.286,362.215 532.5,363C 519.167,363.667 505.833,363.667 492.5,363C 485.05,355.084 486.05,348.584 495.5,343.5 Z"/>
  </g>
  <g transform="matrix(0.5303769111633301, 0, 0, 0.5658650398254395, -21.757644653320312, -58.70857238769531)" style="">
    <path style="opacity: 1; fill: rgb(253, 213, 8);" d="M 412.5,360.5 C 408.817,355.774 404.151,354.441 398.5,356.5C 400.296,354.1 402.63,352.433 405.5,351.5C 408.898,351.82 412.232,351.487 415.5,350.5C 420.647,348.497 425.981,346.997 431.5,346C 442.167,345.333 452.833,345.333 463.5,346C 470.664,346.548 473.164,350.048 471,356.5C 469.967,359.033 468.133,360.699 465.5,361.5C 454.783,362.751 443.783,362.751 432.5,361.5C 426.876,362.406 421.209,363.072 415.5,363.5C 415.657,362.127 415.49,360.793 415,359.5C 414.049,359.884 413.216,360.217 412.5,360.5 Z"/>
  </g>
  <g transform="matrix(0.5303769111633301, 0, 0, 0.5658650398254395, -21.757644653320312, -58.70857238769531)" style="">
    <path style="opacity: 1; fill: rgb(253, 213, 8);" d="M 609.5,344.5 C 616.655,345.329 623.989,345.829 631.5,346C 676.832,346.5 722.165,346.667 767.5,346.5C 767.5,348.167 767.5,349.833 767.5,351.5C 769.844,350.017 772.344,348.684 775,347.5C 776.226,347.645 777.393,347.978 778.5,348.5C 779.5,350.167 780.833,351.5 782.5,352.5C 780.514,355.649 778.181,358.483 775.5,361C 761.169,362.729 746.835,362.896 732.5,361.5C 732.651,358.282 733.484,357.949 735,360.5C 735.483,359.552 735.649,358.552 735.5,357.5C 746.167,357.5 756.833,357.5 767.5,357.5C 767.5,356.5 767.5,355.5 767.5,354.5C 756.813,354.168 746.146,354.501 735.5,355.5C 735.113,356.72 734.28,357.387 733,357.5C 730.804,356.91 728.638,356.243 726.5,355.5C 724.253,356.374 721.92,356.708 719.5,356.5C 719.5,354.833 719.5,353.167 719.5,351.5C 717.533,351.261 715.699,351.594 714,352.5C 713.795,354.582 713.962,356.749 714.5,359C 713.5,359.333 712.5,359.667 711.5,360C 712.737,378.317 712.737,396.817 711.5,415.5C 710.692,415.808 710.025,416.308 709.5,417C 702.127,418.005 694.793,419.171 687.5,420.5C 686.916,405.347 686.249,390.347 685.5,375.5C 685.5,371.5 685.5,367.5 685.5,363.5C 659.5,363.5 633.5,363.5 607.5,363.5C 603.539,361.501 601.539,358.167 601.5,353.5C 601.369,347.966 604.036,344.966 609.5,344.5 Z"/>
  </g>
  <g transform="matrix(0.5303769111633301, 0, 0, 0.5658650398254395, -21.757644653320312, -58.70857238769531)" style="">
    <path style="opacity: 1; fill: rgb(253, 213, 8);" d="M 412.5,367.5 C 412.5,365.167 412.5,362.833 412.5,360.5C 413.216,360.217 414.049,359.884 415,359.5C 415.49,360.793 415.657,362.127 415.5,363.5C 421.209,363.072 426.876,362.406 432.5,361.5C 443.783,362.751 454.783,362.751 465.5,361.5C 468.133,360.699 469.967,359.033 471,356.5C 473.164,350.048 470.664,346.548 463.5,346C 452.833,345.333 442.167,345.333 431.5,346C 425.981,346.997 420.647,348.497 415.5,350.5C 412.232,351.487 408.898,351.82 405.5,351.5C 412.3,347.79 419.634,345.29 427.5,344C 440.5,343.333 453.5,343.333 466.5,344C 469.913,345.077 472.413,347.244 474,350.5C 475.636,356.73 473.469,360.897 467.5,363C 454.5,363.333 441.5,363.667 428.5,364C 423.178,365.109 418.011,366.609 413,368.5C 412.601,368.272 412.435,367.938 412.5,367.5 Z"/>
  </g>
  <g transform="matrix(0.5303769111633301, 0, 0, 0.5658650398254395, -21.757644653320312, -58.70857238769531)" style="">
    <path style="opacity: 1; fill: rgb(253, 213, 8);" d="M 731.5,363.5 C 728.253,357.714 723.586,356.214 717.5,359C 715.859,360.129 714.859,361.629 714.5,363.5C 713.503,382.659 713.17,401.993 713.5,421.5C 704.167,421.5 694.833,421.5 685.5,421.5C 685.5,406.167 685.5,390.833 685.5,375.5C 686.249,390.347 686.916,405.347 687.5,420.5C 694.793,419.171 702.127,418.005 709.5,417C 710.025,416.308 710.692,415.808 711.5,415.5C 712.737,396.817 712.737,378.317 711.5,360C 712.5,359.667 713.5,359.333 714.5,359C 713.962,356.749 713.795,354.582 714,352.5C 715.699,351.594 717.533,351.261 719.5,351.5C 719.5,353.167 719.5,354.833 719.5,356.5C 721.92,356.708 724.253,356.374 726.5,355.5C 728.638,356.243 730.804,356.91 733,357.5C 734.28,357.387 735.113,356.72 735.5,355.5C 746.146,354.501 756.813,354.168 767.5,354.5C 767.5,355.5 767.5,356.5 767.5,357.5C 756.833,357.5 746.167,357.5 735.5,357.5C 735.649,358.552 735.483,359.552 735,360.5C 733.484,357.949 732.651,358.282 732.5,361.5C 746.835,362.896 761.169,362.729 775.5,361C 778.181,358.483 780.514,355.649 782.5,352.5C 780.833,351.5 779.5,350.167 778.5,348.5C 777.393,347.978 776.226,347.645 775,347.5C 772.344,348.684 769.844,350.017 767.5,351.5C 767.5,349.833 767.5,348.167 767.5,346.5C 722.165,346.667 676.832,346.5 631.5,346C 623.989,345.829 616.655,345.329 609.5,344.5C 664.665,343.335 719.998,343.168 775.5,344C 776.5,344.333 777.5,344.667 778.5,345C 785.167,351 785.167,357 778.5,363C 762.837,363.5 747.17,363.667 731.5,363.5 Z"/>
  </g>
  <g transform="matrix(0.5303769111633301, 0, 0, 0.5658650398254395, -21.757644653320312, -58.70857238769531)" style="">
    <path style="opacity: 1; fill: rgb(253, 213, 8);" d="M 820.5,362.5 C 821.167,362.5 821.5,362.833 821.5,363.5C 815.833,364.833 810.167,364.833 804.5,363.5C 810.026,363.821 815.36,363.488 820.5,362.5 Z"/>
  </g>
  <g transform="matrix(0.5303769111633301, 0, 0, 0.5658650398254395, -21.757644653320312, -58.70857238769531)" style="">
    <path style="opacity: 1; fill: rgb(192, 192, 192);" d="M 605.5,410.5 C 605.414,411.496 605.748,412.329 606.5,413C 599.926,413.659 593.426,412.825 587,410.5C 559.186,411.896 531.353,412.896 503.5,413.5C 426,412.036 348.5,411.036 271,410.5C 266.87,410.299 263.703,411.799 261.5,415C 259.527,415.495 257.527,415.662 255.5,415.5C 255.006,466.833 254.339,518.333 253.5,570C 254.755,572.982 255.422,576.148 255.5,579.5C 254.206,578.71 253.039,577.71 252,576.5C 251.333,523.833 251.333,471.167 252,418.5C 253.948,414.097 257.114,410.93 261.5,409C 373.124,407.342 484.79,407.008 596.5,408C 599.657,408.396 602.657,409.229 605.5,410.5 Z"/>
  </g>
  <g transform="matrix(0.5303769111633301, 0, 0, 0.5658650398254395, -21.757644653320312, -58.70857238769531)" style="">
    <path style="opacity: 1; fill: rgb(192, 192, 192);" d="M 605.5 410.5 C 609.908 412.414 612.741 415.748 614 420.5 C 614.667 472.5 614.667 524.5 614 576.5 C 612.833 577.667 611.667 578.833 610.5 580 C 491.999 580.833 373.666 580.666 255.5 579.5 C 255.422 576.148 254.755 572.982 253.5 570 C 254.339 518.333 255.006 466.833 255.5 415.5 C 257.527 415.662 259.527 415.495 261.5 415 C 263.703 411.799 266.87 410.299 271 410.5 C 348.5 410.309 426 404.471 503.5 413.5 C 531.353 412.896 559.186 411.896 587 410.5 C 593.426 412.825 599.926 413.659 606.5 413 C 605.748 412.329 605.414 411.496 605.5 410.5 Z"/>
  </g>
  <g transform="matrix(0.5303769111633301, 0, 0, 0.5658650398254395, -21.757644653320312, -58.70857238769531)" style="">
    <path style="opacity: 1; fill: rgb(192, 192, 192);" d="M 335.5,414.5 C 351.483,415.366 367.483,415.7 383.5,415.5C 383.5,420.833 383.5,426.167 383.5,431.5C 388.833,431.5 394.167,431.5 399.5,431.5C 399.5,426.5 399.5,421.5 399.5,416.5C 406.193,416.163 412.86,415.497 419.5,414.5C 460.733,415.428 502.066,415.761 543.5,415.5C 543.5,420.833 543.5,426.167 543.5,431.5C 522.167,431.5 500.833,431.5 479.5,431.5C 479.5,436.833 479.5,442.167 479.5,447.5C 506.167,447.5 532.833,447.5 559.5,447.5C 559.5,436.833 559.5,426.167 559.5,415.5C 571.421,414.407 576.754,414.74 575.5,416.5C 575.5,453.5 575.5,490.5 575.5,527.5C 570.167,527.5 564.833,527.5 559.5,527.5C 559.5,532.833 559.5,538.167 559.5,543.5C 484.833,543.5 410.167,543.5 335.5,543.5C 335.5,548.833 335.5,554.167 335.5,559.5C 314.167,559.5 292.833,559.5 271.5,559.5C 271.5,511.5 271.5,463.5 271.5,415.5C 276.833,415.5 282.167,415.5 287.5,415.5C 287.5,420.833 287.5,426.167 287.5,431.5C 298.167,431.5 308.833,431.5 319.5,431.5C 319.5,426.167 319.5,420.833 319.5,415.5C 325.026,415.821 330.36,415.488 335.5,414.5 Z"/>
  </g>
  <g transform="matrix(0.5303769111633301, 0, 0, 0.5658650398254395, -21.757644653320312, -58.70857238769531)" style="">
    <path style="opacity: 1; fill: rgb(192, 192, 192);" d="M 671.5,426.5 C 671.5,428.167 671.5,429.833 671.5,431.5C 670.662,436.786 669.495,442.119 668,447.5C 667.555,482.195 666.555,516.862 665,551.5C 664.172,540.864 663.672,540.864 663.5,551.5C 664.667,563.496 664.667,575.496 663.5,587.5C 663.667,591.5 663.833,595.5 664,599.5C 664.828,588.864 665.328,588.864 665.5,599.5C 665.16,603.558 664.493,607.558 663.5,611.5C 665.437,620.748 665.937,630.081 665,639.5C 662.595,640.274 660.095,640.774 657.5,641C 665.248,642.306 664.914,643.14 656.5,643.5C 652.955,643.68 649.622,643.014 646.5,641.5C 646.606,635.681 646.606,629.681 646.5,623.5C 648.167,623.5 649.833,623.5 651.5,623.5C 651.167,618.167 650.833,612.833 650.5,607.5C 647.832,607.666 645.498,608.666 643.5,610.5C 642.186,609.687 641.019,608.687 640,607.5C 639.667,600.5 639.333,593.5 639,586.5C 637.991,588.025 637.491,589.692 637.5,591.5C 636.325,591.719 635.325,591.386 634.5,590.5C 634.613,585.557 635.28,580.557 636.5,575.5C 637.5,575.5 638.5,575.5 639.5,575.5C 639.832,564.813 639.499,554.146 638.5,543.5C 637.461,554.55 635.794,565.217 633.5,575.5C 634.63,526.166 634.796,476.832 634,427.5C 646.42,426.511 658.92,426.178 671.5,426.5 Z"/>
  </g>
  <g transform="matrix(0.5303769111633301, 0, 0, 0.5658650398254395, -21.757644653320312, -58.70857238769531)" style="">
    <path style="opacity: 1; fill: rgb(253, 213, 8);" d="M 153.5,475.5 C 158.765,474.571 163.265,475.904 167,479.5C 167.667,488.167 167.667,496.833 167,505.5C 166.167,507.667 164.667,509.167 162.5,510C 159.167,510.667 155.833,510.667 152.5,510C 150.951,508.786 149.785,507.286 149,505.5C 148.333,497.167 148.333,488.833 149,480.5C 150.025,478.313 151.525,476.646 153.5,475.5 Z"/>
  </g>
  <g transform="matrix(0.5303769111633301, 0, 0, 0.5658650398254395, -21.757644653320312, -58.70857238769531)" style="">
    <path style="opacity: 1; fill: rgb(175, 175, 175);" d="M 671.5,426.5 C 658.92,426.178 646.42,426.511 634,427.5C 634.796,476.832 634.63,526.166 633.5,575.5C 633.66,577.199 633.494,578.866 633,580.5C 632.517,579.552 632.351,578.552 632.5,577.5C 632.5,526.5 632.5,475.5 632.5,424.5C 645.876,423.852 658.876,424.519 671.5,426.5 Z"/>
  </g>
  <g transform="matrix(0.5303769111633301, 0, 0, 0.5658650398254395, -21.757644653320312, -58.70857238769531)" style="">
    <path style="opacity: 1; fill: rgb(253, 213, 8);" d="M 152.5,527.5 C 155.85,527.335 159.183,527.502 162.5,528C 164.286,528.785 165.786,529.951 167,531.5C 167.667,539.833 167.667,548.167 167,556.5C 160.508,563.425 154.508,563.092 149,555.5C 148.333,547.833 148.333,540.167 149,532.5C 149.997,530.677 151.164,529.01 152.5,527.5 Z"/>
  </g>
  <g transform="matrix(0.5303769111633301, 0, 0, 0.5658650398254395, -21.757644653320312, -58.70857238769531)" style="">
    <path style="opacity:1" fill="#f8f9fa" d="M 719.5,644.5 C 718.493,647.643 716.827,650.477 714.5,653C 711.5,653.667 708.5,653.667 705.5,653C 704.051,651.898 702.718,650.731 701.5,649.5C 701.5,647.5 701.5,645.5 701.5,643.5C 703.298,625.413 710.298,609.746 722.5,596.5C 744.137,576.164 769.804,568.331 799.5,573C 816.449,576.204 832.116,582.538 846.5,592C 850.824,597.714 850.158,602.714 844.5,607C 838.512,608.354 833.512,606.688 829.5,602C 807.461,588.943 784.128,585.943 759.5,593C 735.869,602.135 722.536,619.301 719.5,644.5 Z"/>
  </g>
  <g transform="matrix(0.5303769111633301, 0, 0, 0.5658650398254395, -21.757644653320312, -58.70857238769531)" style="">
    <path style="opacity: 1; fill: rgb(253, 213, 8);" d="M 155.5,577.5 C 160.55,577.274 164.383,579.274 167,583.5C 167.667,592.5 167.667,601.5 167,610.5C 160.471,617.493 154.471,617.159 149,609.5C 148.333,600.833 148.333,592.167 149,583.5C 150.436,580.558 152.603,578.558 155.5,577.5 Z"/>
  </g>
  <g transform="matrix(0.5303769111633301, 0, 0, 0.5658650398254395, -21.757644653320312, -58.70857238769531)" style="">
    <path style="opacity: 1; fill: rgb(192, 192, 192);" d="M 671.5,431.5 C 671.5,503.167 671.5,574.833 671.5,646.5C 662.318,646.827 653.318,646.493 644.5,645.5C 644.666,635.161 644.5,624.828 644,614.5C 640.229,610.212 635.729,609.379 630.5,612C 629.299,612.903 628.465,614.069 628,615.5C 627.667,623.833 627.333,632.167 627,640.5C 625.891,642.815 624.057,644.315 621.5,645C 603.662,645.829 585.995,645.662 568.5,644.5C 569.708,643.766 571.041,643.433 572.5,643.5C 573.331,636.869 573.664,630.202 573.5,623.5C 579.5,623.5 585.5,623.5 591.5,623.5C 591.5,628.5 591.5,633.5 591.5,638.5C 586.167,638.833 580.833,639.167 575.5,639.5C 575.5,640.833 575.5,642.167 575.5,643.5C 588.837,643.667 602.171,643.5 615.5,643C 618.839,641.5 622.173,640 625.5,638.5C 625.192,637.692 624.692,637.025 624,636.5C 623.501,630.509 623.334,624.509 623.5,618.5C 624.5,618.5 625.5,618.5 626.5,618.5C 627.057,614.366 626.057,610.699 623.5,607.5C 626.086,606.52 628.753,606.187 631.5,606.5C 631.5,605.5 631.5,604.5 631.5,603.5C 628.833,603.5 626.167,603.5 623.5,603.5C 623.66,601.801 623.494,600.134 623,598.5C 621.989,599.337 620.822,599.67 619.5,599.5C 619.5,602.167 619.5,604.833 619.5,607.5C 617.523,606.851 615.69,606.851 614,607.5C 612.739,607.241 611.739,606.574 611,605.5C 604.789,607.434 598.289,608.101 591.5,607.5C 591.5,605.5 591.5,603.5 591.5,601.5C 567.493,600.666 543.493,600.666 519.5,601.5C 510.153,600.999 500.82,600.332 491.5,599.5C 479.525,601.949 467.525,601.949 455.5,599.5C 446.153,600.001 436.82,600.668 427.5,601.5C 419.562,600.303 411.562,599.636 403.5,599.5C 358.823,602.139 314.156,602.139 269.5,599.5C 268.833,599.5 268.167,599.5 267.5,599.5C 267.5,598.833 267.5,598.167 267.5,597.5C 383.5,597.667 499.5,597.5 615.5,597C 625.204,594.094 630.537,587.594 631.5,577.5C 631.833,577.5 632.167,577.5 632.5,577.5C 632.351,578.552 632.517,579.552 633,580.5C 633.494,578.866 633.66,577.199 633.5,575.5C 635.794,565.217 637.461,554.55 638.5,543.5C 639.499,554.146 639.832,564.813 639.5,575.5C 638.5,575.5 637.5,575.5 636.5,575.5C 635.28,580.557 634.613,585.557 634.5,590.5C 635.325,591.386 636.325,591.719 637.5,591.5C 637.491,589.692 637.991,588.025 639,586.5C 639.333,593.5 639.667,600.5 640,607.5C 641.019,608.687 642.186,609.687 643.5,610.5C 645.498,608.666 647.832,607.666 650.5,607.5C 650.833,612.833 651.167,618.167 651.5,623.5C 649.833,623.5 648.167,623.5 646.5,623.5C 646.606,629.681 646.606,635.681 646.5,641.5C 649.622,643.014 652.955,643.68 656.5,643.5C 664.914,643.14 665.248,642.306 657.5,641C 660.095,640.774 662.595,640.274 665,639.5C 665.937,630.081 665.437,620.748 663.5,611.5C 664.493,607.558 665.16,603.558 665.5,599.5C 665.328,588.864 664.828,588.864 664,599.5C 663.833,595.5 663.667,591.5 663.5,587.5C 664.667,575.496 664.667,563.496 663.5,551.5C 663.672,540.864 664.172,540.864 665,551.5C 666.555,516.862 667.555,482.195 668,447.5C 669.495,442.119 670.662,436.786 671.5,431.5 Z"/>
  </g>
  <g transform="matrix(0.5303769111633301, 0, 0, 0.5658650398254395, -21.757644653320312, -58.70857238769531)" style="">
    <path style="opacity:1" fill="#f9faf9" d="M 267.5,599.5 C 268.167,599.5 268.833,599.5 269.5,599.5C 271.391,601.836 271.891,604.502 271,607.5C 265.789,610.443 261.122,614.11 257,618.5C 253.599,625.644 253.932,632.644 258,639.5C 259.938,642.106 262.438,643.939 265.5,645C 275.244,645.192 284.91,645.692 294.5,646.5C 293.439,651.243 290.773,654.909 286.5,657.5C 263.079,667.375 246.912,660.375 238,636.5C 235.469,622.756 239.303,611.256 249.5,602C 255.238,599.705 261.238,598.872 267.5,599.5 Z"/>
  </g>
  <g transform="matrix(0.5303769111633301, 0, 0, 0.5658650398254395, -21.757644653320312, -58.70857238769531)" style="">
    <path style="opacity: 1; fill: rgb(192, 192, 192);" d="M 568.5,644.5 C 565.833,643.833 564.167,642.167 563.5,639.5C 563.334,632.492 563.5,625.492 564,618.5C 564.333,621.5 564.667,624.5 565,627.5C 565.333,624.833 565.667,622.167 566,619.5C 566.333,620.833 566.667,622.167 567,623.5C 567.702,617.586 565.702,612.92 561,609.5C 560.667,609.833 560.333,610.167 560,610.5C 559.626,609.584 559.126,608.75 558.5,608C 554.5,607.333 550.5,607.333 546.5,608C 545.789,609.255 544.956,610.421 544,611.5C 543.5,620.827 543.334,630.161 543.5,639.5C 527.163,639.333 510.83,639.5 494.5,640C 493.027,640.71 492.36,641.876 492.5,643.5C 490.05,643.298 487.717,643.631 485.5,644.5C 477.897,621.739 462.063,609.739 438,608.5C 417.756,609.75 403.089,619.417 394,637.5C 380.382,613.775 360.215,604.942 333.5,611C 316.659,617.338 305.992,629.171 301.5,646.5C 299.167,646.5 296.833,646.5 294.5,646.5C 284.91,645.692 275.244,645.192 265.5,645C 262.438,643.939 259.938,642.106 258,639.5C 253.932,632.644 253.599,625.644 257,618.5C 261.122,614.11 265.789,610.443 271,607.5C 271.891,604.502 271.391,601.836 269.5,599.5C 314.156,602.139 358.823,602.139 403.5,599.5C 411.562,599.636 419.562,600.303 427.5,601.5C 436.82,600.668 446.153,600.001 455.5,599.5C 467.525,601.949 479.525,601.949 491.5,599.5C 500.82,600.332 510.153,600.999 519.5,601.5C 543.493,600.666 567.493,600.666 591.5,601.5C 591.5,603.5 591.5,605.5 591.5,607.5C 598.289,608.101 604.789,607.434 611,605.5C 611.739,606.574 612.739,607.241 614,607.5C 615.69,606.851 617.523,606.851 619.5,607.5C 619.5,604.833 619.5,602.167 619.5,599.5C 620.822,599.67 621.989,599.337 623,598.5C 623.494,600.134 623.66,601.801 623.5,603.5C 626.167,603.5 628.833,603.5 631.5,603.5C 631.5,604.5 631.5,605.5 631.5,606.5C 628.753,606.187 626.086,606.52 623.5,607.5C 626.057,610.699 627.057,614.366 626.5,618.5C 625.5,618.5 624.5,618.5 623.5,618.5C 623.334,624.509 623.501,630.509 624,636.5C 624.692,637.025 625.192,637.692 625.5,638.5C 622.173,640 618.839,641.5 615.5,643C 602.171,643.5 588.837,643.667 575.5,643.5C 575.5,642.167 575.5,640.833 575.5,639.5C 580.833,639.167 586.167,638.833 591.5,638.5C 591.5,633.5 591.5,628.5 591.5,623.5C 585.5,623.5 579.5,623.5 573.5,623.5C 573.664,630.202 573.331,636.869 572.5,643.5C 571.041,643.433 569.708,643.766 568.5,644.5 Z"/>
  </g>
  <g transform="matrix(0.5303769111633301, 0, 0, 0.5658650398254395, -21.757644653320312, -58.70857238769531)" style="">
    <path style="opacity: 1; fill: rgb(192, 192, 192);" d="M 690.5,443.5 C 690.832,509.002 690.499,574.335 689.5,639.5C 689.184,571.195 689.517,505.861 690.5,443.5 Z"/>
  </g>
  <g transform="matrix(0.5303769111633301, 0, 0, 0.5658650398254395, -21.757644653320312, -58.70857238769531)" style="">
    <g>
      <path style="opacity: 1; fill: rgb(192, 192, 192);" d="M 722.5 596.5 C 710.298 609.746 703.298 625.413 701.5 643.5 C 697.827 645.318 693.827 645.984 689.5 645.5 C 689.5 643.5 689.5 641.5 689.5 639.5 C 690.499 574.335 690.832 509.002 690.5 443.5 C 693.838 441.67 695.504 442.67 695.5 446.5 C 698.187 446.336 700.854 446.503 703.5 447 C 701.866 447.494 700.199 447.66 698.5 447.5 C 697.833 452.833 697.167 458.167 696.5 463.5 C 697.5 463.5 698.5 463.5 699.5 463.5 C 699.5 468.833 699.5 474.167 699.5 479.5 C 700.833 479.5 702.167 479.5 703.5 479.5 C 703.5 475.5 703.5 471.5 703.5 467.5 C 705.527 467.338 707.527 467.505 709.5 468 C 708.847 472.586 708.513 477.253 708.5 482 C 710.979 495.868 710.979 509.701 708.5 523.5 C 711.767 524.695 714.933 526.028 718 527.5 C 731.794 526.209 742.96 526.209 751.5 527.5 C 751.5 543.5 783.509 553.214 783.509 569.214 C 778.203 570.491 740.861 578.11 735.5 579.5 C 735.5 573.167 735.5 566.833 735.5 560.5 C 730.167 560.5 724.833 560.5 719.5 560.5 C 719.5 567.167 719.5 573.833 719.5 580.5 C 722.85 580.335 726.183 580.502 729.5 581 C 726.593 584.457 723.26 587.457 719.5 590 C 719.995 592.101 720.995 594.268 722.5 596.5 Z"/>
      <path style="opacity: 1; fill: rgb(192, 192, 192);" d="M 837.5 646.5 C 835.167 646.5 832.833 646.5 830.5 646.5 C 818.999 614.473 796.666 602.973 763.5 612 C 748.762 619.35 739.096 630.85 734.5 646.5 C 729.056 647.108 724.056 646.442 719.5 644.5 C 722.536 619.301 735.869 602.135 759.5 593 C 784.128 585.943 807.461 588.943 829.5 602 C 833.512 606.688 838.512 608.354 844.5 607 C 850.158 602.714 850.824 597.714 846.5 592 C 832.116 582.538 816.449 576.204 799.5 573 C 769.804 568.331 744.137 576.164 722.5 596.5 C 720.995 594.268 719.995 592.101 719.5 590 C 723.26 587.457 726.593 584.457 729.5 581 C 726.183 580.502 722.85 580.335 719.5 580.5 C 719.5 573.833 719.5 567.167 719.5 560.5 C 724.833 560.5 730.167 560.5 735.5 560.5 C 735.5 566.833 735.5 573.167 735.5 579.5 C 740.861 578.11 746.194 576.777 751.5 575.5 C 751.5 559.5 751.5 543.5 751.5 527.5 C 742.96 526.209 733.318 531.638 719.524 532.929 C 716.457 531.457 711.767 524.695 708.5 523.5 C 710.979 509.701 710.979 495.868 708.5 482 C 708.513 477.253 708.847 472.586 709.5 468 C 707.527 467.505 705.527 467.338 703.5 467.5 C 703.5 471.5 703.5 475.5 703.5 479.5 C 702.167 479.5 700.833 479.5 699.5 479.5 C 699.5 474.167 699.5 468.833 699.5 463.5 C 698.5 463.5 697.5 463.5 696.5 463.5 C 697.167 458.167 697.833 452.833 698.5 447.5 C 700.199 447.66 701.866 447.494 703.5 447 C 700.854 446.503 698.187 446.336 695.5 446.5 C 695.504 442.67 693.838 441.67 690.5 443.5 C 689.517 505.861 689.184 571.195 689.5 639.5 C 689.5 641.5 689.5 643.5 689.5 645.5 C 688.501 576.669 688.167 507.669 688.5 438.5 C 712.169 438.333 735.836 438.5 759.5 439 C 765.614 440.097 770.447 443.264 774 448.5 C 787.942 470.106 802.275 491.439 817 512.5 C 818.5 514 820 515.5 821.5 517 C 828.384 520.275 835.384 523.275 842.5 526 C 848.873 528.054 853.706 531.888 857 537.5 C 857.333 560.833 857.667 584.167 858 607.5 C 862.618 610.45 866.952 613.784 871 617.5 C 878.469 629.423 875.969 638.59 863.5 645 C 854.756 645.195 846.089 645.695 837.5 646.5 Z"/>
    </g>
  </g>
  <g transform="matrix(0.5303769111633301, 0, 0, 0.5658650398254395, -21.757644653320312, -58.70857238769531)" style="">
    <path style="opacity:1" fill="#f3f5f6" d="M 714.5,542.5 C 723.25,542.09 731.916,542.59 740.5,544C 745.965,549.353 745.632,554.353 739.5,559C 731.5,559.667 723.5,559.667 715.5,559C 712.08,557.281 710.414,554.448 710.5,550.5C 710.782,547.269 712.115,544.602 714.5,542.5 Z"/>
  </g>
  <g transform="matrix(0.5303769111633301, 0, 0, 0.5658650398254395, -21.757644653320312, -58.70857238769531)" style="">
    <path style="opacity:1" fill="#fafbfb" d="M 714.5,467.5 C 729.837,467.333 745.17,467.5 760.5,468C 762,469.5 763.5,471 765,472.5C 780.167,495.5 795.333,518.5 810.5,541.5C 809.277,542.614 807.944,542.781 806.5,542C 791.385,535.108 776.052,528.775 760.5,523C 744.503,522.5 728.503,522.333 712.5,522.5C 711.867,503.931 712.534,485.598 714.5,467.5 Z"/>
  </g>
  <g transform="matrix(0.5303769111633301, 0, 0, 0.5658650398254395, -21.757644653320312, -58.70857238769531)" style="">
    <path style="opacity:1" fill="#f9fafa" d="M 485.5,644.5 C 485.328,645.492 485.662,646.158 486.5,646.5C 488.578,662.593 484.245,676.593 473.5,688.5C 469.787,691.884 466.121,695.217 462.5,698.5C 446.477,705.165 430.477,705.165 414.5,698.5C 409.256,694.743 404.423,690.41 400,685.5C 398.491,681.806 396.491,678.473 394,675.5C 388.337,684.66 381.17,692.327 372.5,698.5C 365.007,702.371 357.007,704.038 348.5,703.5C 340.282,704.194 332.615,702.528 325.5,698.5C 322.75,695.945 319.75,693.612 316.5,691.5C 312.545,686.697 308.712,681.697 305,676.5C 300.689,666.825 299.522,656.825 301.5,646.5C 305.992,629.171 316.659,617.338 333.5,611C 360.215,604.942 380.382,613.775 394,637.5C 403.089,619.417 417.756,609.75 438,608.5C 462.063,609.739 477.897,621.739 485.5,644.5 Z"/>
  </g>
  <g transform="matrix(0.5303769111633301, 0, 0, 0.5658650398254395, -21.757644653320312, -58.70857238769531)" style="">
    <path style="opacity:1" fill="#f9fafa" d="M 830.5,646.5 C 832.806,668.787 824.806,686.12 806.5,698.5C 795.325,703.256 783.659,704.756 771.5,703C 768.135,702.495 765.135,701.328 762.5,699.5C 761.838,697.168 760.505,696.501 758.5,697.5C 751.546,692.38 745.379,686.38 740,679.5C 735.156,669.021 733.323,658.021 734.5,646.5C 739.096,630.85 748.762,619.35 763.5,612C 796.666,602.973 818.999,614.473 830.5,646.5 Z"/>
  </g>
  <g transform="matrix(0.5303769111633301, 0, 0, 0.5658650398254395, -21.757644653320312, -58.70857238769531)" style="">
    <path style="opacity:1" fill="#fbfbfb" d="M 563.5,639.5 C 564.167,642.167 565.833,643.833 568.5,644.5C 585.995,645.662 603.662,645.829 621.5,645C 624.057,644.315 625.891,642.815 627,640.5C 627.333,632.167 627.667,623.833 628,615.5C 628.465,614.069 629.299,612.903 630.5,612C 635.729,609.379 640.229,610.212 644,614.5C 644.5,624.828 644.666,635.161 644.5,645.5C 641.426,654.386 635.093,659.553 625.5,661C 604.5,661.667 583.5,661.667 562.5,661C 559.52,659.366 556.52,657.7 553.5,656C 551.035,652.893 548.702,649.726 546.5,646.5C 545.433,636.194 545.267,625.86 546,615.5C 550.856,609.24 556.19,608.907 562,614.5C 562.171,623.01 562.671,631.343 563.5,639.5 Z"/>
  </g>
  <g transform="matrix(0.5303769111633301, 0, 0, 0.5658650398254395, -21.757644653320312, -58.70857238769531)" style="">
    <path style="opacity: 1; fill: rgb(192, 192, 192);" d="M 563.5,639.5 C 562.671,631.343 562.171,623.01 562,614.5C 556.19,608.907 550.856,609.24 546,615.5C 545.267,625.86 545.433,636.194 546.5,646.5C 526.5,646.5 506.5,646.5 486.5,646.5C 485.662,646.158 485.328,645.492 485.5,644.5C 487.717,643.631 490.05,643.298 492.5,643.5C 492.36,641.876 493.027,640.71 494.5,640C 510.83,639.5 527.163,639.333 543.5,639.5C 543.334,630.161 543.5,620.827 544,611.5C 544.956,610.421 545.789,609.255 546.5,608C 550.5,607.333 554.5,607.333 558.5,608C 559.126,608.75 559.626,609.584 560,610.5C 560.333,610.167 560.667,609.833 561,609.5C 565.702,612.92 567.702,617.586 567,623.5C 566.667,622.167 566.333,620.833 566,619.5C 565.667,622.167 565.333,624.833 565,627.5C 564.667,624.5 564.333,621.5 564,618.5C 563.5,625.492 563.334,632.492 563.5,639.5 Z"/>
  </g>
  <g transform="matrix(0.5303769111633301, 0, 0, 0.5658650398254395, -21.757644653320312, -58.70857238769531)" style="">
    <path style="opacity: 1;" d="M 431.5,626.5 C 448.106,624.551 460.273,630.885 468,645.5C 472.875,670.433 462.708,684.099 437.5,686.5C 422.356,685.675 412.523,678.008 408,663.5C 405.77,644.601 413.604,632.267 431.5,626.5 Z"/>
  </g>
  <g transform="matrix(0.5303769111633301, 0, 0, 0.5658650398254395, -21.757644653320312, -58.70857238769531)" style="">
    <path style="opacity:1" fill="#f6f9fa" d="M 433.5,644.5 C 445.824,642.992 451.324,648.325 450,660.5C 442.333,671.167 434.667,671.167 427,660.5C 425.607,653.631 427.774,648.297 433.5,644.5 Z"/>
  </g>
  <g transform="matrix(0.5303769111633301, 0, 0, 0.5658650398254395, -21.757644653320312, -58.70857238769531)" style="">
    <path style="opacity: 1;" d="M 777.5,625.5 C 794.746,624.927 806.579,632.594 813,648.5C 816.138,666.4 809.305,678.566 792.5,685C 773.332,689.667 760.166,682.833 753,664.5C 749.183,643.841 757.349,630.841 777.5,625.5 Z"/>
  </g>
  <g transform="matrix(0.5303769111633301, 0, 0, 0.5658650398254395, -21.757644653320312, -58.70857238769531)" style="">
    <path style="opacity:1" fill="#f6f8f9" d="M 777.5,644.5 C 790.374,643.206 795.874,648.872 794,661.5C 787.153,670.425 779.819,670.759 772,662.5C 768.967,654.924 770.8,648.924 777.5,644.5 Z"/>
  </g>
  <g transform="matrix(0.5303769111633301, 0, 0, 0.5658650398254395, -21.757644653320312, -58.70857238769531)" style="">
    <path style="opacity: 1;" d="M 340.5,626.5 C 360.32,623.656 373.487,631.656 380,650.5C 380.875,672.747 370.208,684.747 348,686.5C 333.05,685.555 323.383,677.888 319,663.5C 316.426,645.294 323.593,632.96 340.5,626.5 Z"/>
  </g>
  <g transform="matrix(0.5303769111633301, 0, 0, 0.5658650398254395, -21.757644653320312, -58.70857238769531)" style="">
    <path style="opacity:1" fill="#f6f8f9" d="M 344.5,644.5 C 356.674,643.291 362.174,648.624 361,660.5C 357.128,667.792 351.295,669.959 343.5,667C 335.261,659.018 335.594,651.518 344.5,644.5 Z"/>
  </g>
  <g transform="matrix(0.5303769111633301, 0, 0, 0.5658650398254395, -21.757644653320312, -58.70857238769531)" style="">
    <path style="opacity: 1; fill: rgb(253, 213, 8);" d="M 183.5,697.5 C 184.167,697.5 184.5,697.833 184.5,698.5C 186.148,699.927 188.148,700.76 190.5,701C 207.074,701.824 223.574,701.658 240,700.5C 240.5,701.667 241.333,702.5 242.5,703C 241.376,703.249 240.376,703.749 239.5,704.5C 240.528,706.361 242.028,707.695 244,708.5C 244.781,709.944 244.614,711.277 243.5,712.5C 242.252,713.04 241.085,713.707 240,714.5C 218.344,713.32 196.844,713.32 175.5,714.5C 175.5,716.167 175.5,717.833 175.5,719.5C 170.167,719.5 164.833,719.5 159.5,719.5C 159.5,721.167 159.5,722.833 159.5,724.5C 157.061,723.947 154.727,723.947 152.5,724.5C 151.692,724.192 151.025,723.692 150.5,723C 151.641,722.259 151.641,721.425 150.5,720.5C 147.914,719.52 145.247,719.187 142.5,719.5C 143.475,708.034 143.809,696.701 143.5,685.5C 145.467,685.261 147.301,685.594 149,686.5C 149.333,685.167 149.667,683.833 150,682.5C 150.333,683.167 150.667,683.833 151,684.5C 152.602,681.575 152.602,678.575 151,675.5C 149.95,662.031 150.45,648.698 152.5,635.5C 155.48,635.62 158.313,636.287 161,637.5C 162.081,635.233 163.581,635.066 165.5,637C 166.156,649.293 165.489,661.626 163.5,674C 163.789,679.233 165.789,683.566 169.5,687C 166.833,687.667 164.167,687.667 161.5,687C 159.996,685.509 159.163,683.676 159,681.5C 155.029,685.05 155.195,687.05 159.5,687.5C 159.5,692.833 159.5,698.167 159.5,703.5C 164.833,703.5 170.167,703.5 175.5,703.5C 175.5,704.5 175.5,705.5 175.5,706.5C 180.833,706.5 186.167,706.5 191.5,706.5C 191.5,705.5 191.5,704.5 191.5,703.5C 186.223,704.069 181.223,703.235 176.5,701C 175.556,698.281 175.223,695.448 175.5,692.5C 179.151,692.162 180.817,693.828 180.5,697.5C 181.5,697.5 182.5,697.5 183.5,697.5 Z"/>
  </g>
  <g transform="matrix(0.5303769111633301, 0, 0, 0.5658650398254395, -21.757644653320312, -58.70857238769531)" style="">
    <path style="opacity: 1; fill: rgb(253, 213, 8);" d="M 880.5,683.5 C 883.14,684.82 885.807,686.153 888.5,687.5C 889.5,688.833 890.5,690.167 891.5,691.5C 890.624,691.369 889.957,691.702 889.5,692.5C 890.609,694.385 891.443,696.385 892,698.5C 893,699.833 894,699.833 895,698.5C 895.829,703.533 895.662,708.533 894.5,713.5C 893.833,714.5 893.167,715.5 892.5,716.5C 891.246,714.741 891.579,713.241 893.5,712C 891.866,711.506 890.199,711.34 888.5,711.5C 888.167,714.167 887.833,716.833 887.5,719.5C 878.167,719.5 868.833,719.5 859.5,719.5C 859.33,720.822 859.663,721.989 860.5,723C 859.004,723.507 857.837,723.007 857,721.5C 855.206,723.464 855.706,724.964 858.5,726C 856.695,727.441 854.695,727.608 852.5,726.5C 852.52,724.857 851.853,723.524 850.5,722.5C 850.833,721.833 851.167,721.167 851.5,720.5C 848.951,719.716 846.618,718.549 844.5,717C 791.836,717.401 739.17,717.401 686.5,717C 685.5,716 684.5,715 683.5,714C 681.114,714.351 678.781,714.185 676.5,713.5C 675.583,710.242 675.249,706.909 675.5,703.5C 676.873,703.343 678.207,703.51 679.5,704C 681.833,708.667 684.167,708.667 686.5,704C 683.988,702.127 684.154,700.293 687,698.5C 687.499,694.848 687.665,691.182 687.5,687.5C 692.833,687.5 698.167,687.5 703.5,687.5C 703.5,692.833 703.5,698.167 703.5,703.5C 706.167,703.5 708.833,703.5 711.5,703.5C 711.5,704.5 711.5,705.5 711.5,706.5C 726.774,704.92 742.107,703.92 757.5,703.5C 766.399,705.404 775.399,706.738 784.5,707.5C 792.142,706.504 799.809,705.504 807.5,704.5C 812.853,705.174 818.186,705.841 823.5,706.5C 823.5,705.5 823.5,704.5 823.5,703.5C 820.833,703.5 818.167,703.5 815.5,703.5C 815.5,702.5 815.5,701.5 815.5,700.5C 826.123,700.799 836.456,700.799 846.5,700.5C 847.474,698.257 847.808,695.924 847.5,693.5C 851.375,694.126 853.209,692.459 853,688.5C 855.585,688.037 857.752,686.87 859.5,685C 866.633,683.54 873.633,683.04 880.5,683.5 Z"/>
  </g>
  <g transform="matrix(0.5303769111633301, 0, 0, 0.5658650398254395, -21.757644653320312, -58.70857238769531)" style="">
    <path style="opacity: 1; fill: rgb(253, 213, 8);" d="M 282.5,698.5 C 288.167,698.5 293.833,698.5 299.5,698.5C 308.167,698.5 316.833,698.5 325.5,698.5C 332.615,702.528 340.282,704.194 348.5,703.5C 357.007,704.038 365.007,702.371 372.5,698.5C 386.5,698.5 400.5,698.5 414.5,698.5C 430.477,705.165 446.477,705.165 462.5,698.5C 468.176,698.334 473.843,698.501 479.5,699C 481.609,700.141 483.442,701.641 485,703.5C 486.627,709.732 484.794,714.565 479.5,718C 450.169,718.5 420.835,718.667 391.5,718.5C 389.566,717.89 387.899,716.89 386.5,715.5C 398.803,714.392 411.137,713.558 423.5,713C 415.5,712.667 407.5,712.333 399.5,712C 393.044,709.109 393.044,705.943 399.5,702.5C 392.343,701.704 385.176,701.038 378,700.5C 374.576,701.755 371.076,702.755 367.5,703.5C 367.5,704.5 367.5,705.5 367.5,706.5C 371.182,706.665 374.848,706.499 378.5,706C 380.78,705.788 382.78,704.955 384.5,703.5C 386.316,704.815 387.983,706.315 389.5,708C 383.688,710.349 378.021,712.183 372.5,713.5C 370.865,712.954 369.199,712.62 367.5,712.5C 367.773,710.549 367.107,709.049 365.5,708C 359.485,707.275 353.485,706.442 347.5,705.5C 342.301,706.663 337.301,705.996 332.5,703.5C 330.941,704.074 329.441,704.74 328,705.5C 326.272,702.047 323.438,700.214 319.5,700C 302.824,699.377 286.157,699.544 269.5,700.5C 268.837,703.821 268.17,707.154 267.5,710.5C 267.845,715.078 269.678,716.078 273,713.5C 281.805,714.323 290.639,714.99 299.5,715.5C 319.498,714.804 339.498,714.138 359.5,713.5C 363.403,713.8 367.236,714.467 371,715.5C 375.662,714.368 380.162,714.368 384.5,715.5C 381.813,715.336 379.146,715.503 376.5,716C 374.713,717.319 372.713,718.152 370.5,718.5C 337.5,718.5 304.5,718.5 271.5,718.5C 268.635,717.809 266.468,716.142 265,713.5C 262.646,706.414 264.813,701.581 271.5,699C 275.152,698.501 278.818,698.335 282.5,698.5 Z"/>
  </g>
  <g transform="matrix(0.5303769111633301, 0, 0, 0.5658650398254395, -21.757644653320312, -58.70857238769531)" style="">
    <path style="opacity: 1; fill: rgb(253, 213, 8);" d="M 386.5,715.5 C 385.833,715.5 385.167,715.5 384.5,715.5C 380.162,714.368 375.662,714.368 371,715.5C 367.236,714.467 363.403,713.8 359.5,713.5C 339.498,714.138 319.498,714.804 299.5,715.5C 290.639,714.99 281.805,714.323 273,713.5C 269.678,716.078 267.845,715.078 267.5,710.5C 268.17,707.154 268.837,703.821 269.5,700.5C 286.157,699.544 302.824,699.377 319.5,700C 323.438,700.214 326.272,702.047 328,705.5C 329.441,704.74 330.941,704.074 332.5,703.5C 337.301,705.996 342.301,706.663 347.5,705.5C 353.485,706.442 359.485,707.275 365.5,708C 367.107,709.049 367.773,710.549 367.5,712.5C 369.199,712.62 370.865,712.954 372.5,713.5C 378.021,712.183 383.688,710.349 389.5,708C 387.983,706.315 386.316,704.815 384.5,703.5C 382.78,704.955 380.78,705.788 378.5,706C 374.848,706.499 371.182,706.665 367.5,706.5C 367.5,705.5 367.5,704.5 367.5,703.5C 371.076,702.755 374.576,701.755 378,700.5C 385.176,701.038 392.343,701.704 399.5,702.5C 393.044,705.943 393.044,709.109 399.5,712C 407.5,712.333 415.5,712.667 423.5,713C 411.137,713.558 398.803,714.392 386.5,715.5 Z"/>
  </g>
  <g transform="matrix(0.5303769111633301, 0, 0, 0.5658650398254395, -21.757644653320312, -58.70857238769531)" style="">
    <path style="opacity: 1; fill: rgb(253, 213, 8);" d="M 573.5,698.5 C 579.262,698.149 584.928,698.649 590.5,700C 595.998,706.219 595.665,712.219 589.5,718C 583.5,718.667 577.5,718.667 571.5,718C 566.536,713.727 565.37,708.561 568,702.5C 569.812,701.023 571.645,699.69 573.5,698.5 Z"/>
  </g>
  <g transform="matrix(0.5303769111633301, 0, 0, 0.5658650398254395, -21.757644653320312, -58.70857238769531)" style="">
    <path style="opacity: 1; fill: rgb(253, 213, 8);" d="M 615.5,698.5 C 629.559,698.071 643.559,698.571 657.5,700C 664.576,706.873 663.91,712.873 655.5,718C 641.167,718.667 626.833,718.667 612.5,718C 605.139,710.002 606.139,703.502 615.5,698.5 Z"/>
  </g>
  <g transform="matrix(0.5303769111633301, 0, 0, 0.5658650398254395, -21.757644653320312, -58.70857238769531)" style="">
    <path style="opacity: 1; fill: rgb(253, 213, 8);" d="M 502.5,703.5 C 502.916,701.248 504.249,699.748 506.5,699C 519.5,698.333 532.5,698.333 545.5,699C 552.994,701.83 555.161,706.997 552,714.5C 550.786,716.049 549.286,717.215 547.5,718C 533.5,718.667 519.5,718.667 505.5,718C 500.917,714.65 499.417,710.15 501,704.5C 501.383,703.944 501.883,703.611 502.5,703.5 Z"/>
  </g>
  <g transform="matrix(0.5303769111633301, 0, 0, 0.5658650398254395, -21.757644653320312, -58.70857238769531)" style="">
    <path style="opacity: 1; fill: rgb(253, 213, 8);" d="M 502.5,703.5 C 506.425,701.811 510.592,700.811 515,700.5C 524.473,701.024 533.973,701.024 543.5,700.5C 543.5,701.5 543.5,702.5 543.5,703.5C 545.833,703.5 548.167,703.5 550.5,703.5C 550.106,712.872 545.106,716.872 535.5,715.5C 525.838,714.921 516.171,714.421 506.5,714C 503.127,711.385 501.794,707.885 502.5,703.5 Z"/>
  </g>
  <g transform="matrix(0.5303769111633301, 0, 0, 0.5658650398254395, -21.757644653320312, -58.70857238769531)" style="">
    <path style="opacity: 1; fill: rgb(253, 213, 8);" d="M 183.5,697.5 C 182.5,697.5 181.5,697.5 180.5,697.5C 180.817,693.828 179.151,692.162 175.5,692.5C 175.223,695.448 175.556,698.281 176.5,701C 181.223,703.235 186.223,704.069 191.5,703.5C 191.5,704.5 191.5,705.5 191.5,706.5C 186.167,706.5 180.833,706.5 175.5,706.5C 175.5,705.5 175.5,704.5 175.5,703.5C 170.167,703.5 164.833,703.5 159.5,703.5C 159.5,698.167 159.5,692.833 159.5,687.5C 155.195,687.05 155.029,685.05 159,681.5C 159.163,683.676 159.996,685.509 161.5,687C 164.167,687.667 166.833,687.667 169.5,687C 165.789,683.566 163.789,679.233 163.5,674C 165.489,661.626 166.156,649.293 165.5,637C 163.581,635.066 162.081,635.233 161,637.5C 158.313,636.287 155.48,635.62 152.5,635.5C 150.45,648.698 149.95,662.031 151,675.5C 152.602,678.575 152.602,681.575 151,684.5C 150.667,683.833 150.333,683.167 150,682.5C 149.667,683.833 149.333,685.167 149,686.5C 147.301,685.594 145.467,685.261 143.5,685.5C 143.809,696.701 143.475,708.034 142.5,719.5C 145.247,719.187 147.914,719.52 150.5,720.5C 151.641,721.425 151.641,722.259 150.5,723C 151.025,723.692 151.692,724.192 152.5,724.5C 154.727,723.947 157.061,723.947 159.5,724.5C 159.5,722.833 159.5,721.167 159.5,719.5C 164.833,719.5 170.167,719.5 175.5,719.5C 175.5,717.833 175.5,716.167 175.5,714.5C 196.844,713.32 218.344,713.32 240,714.5C 241.085,713.707 242.252,713.04 243.5,712.5C 244.614,711.277 244.781,709.944 244,708.5C 242.028,707.695 240.528,706.361 239.5,704.5C 240.376,703.749 241.376,703.249 242.5,703C 241.333,702.5 240.5,701.667 240,700.5C 223.574,701.658 207.074,701.824 190.5,701C 188.148,700.76 186.148,699.927 184.5,698.5C 203.836,698.333 223.17,698.5 242.5,699C 243.833,699.667 245.167,700.333 246.5,701C 250.793,706.682 250.459,712.016 245.5,717C 224.914,718.145 204.247,718.978 183.5,719.5C 181.197,723.27 178.531,726.77 175.5,730C 165.242,736.25 154.575,737.084 143.5,732.5C 136.374,727.592 131.708,720.925 129.5,712.5C 129.335,709.482 129.502,706.482 130,703.5C 132.06,692.617 138.226,685.617 148.5,682.5C 148.333,667.163 148.5,651.83 149,636.5C 149.833,634.333 151.333,632.833 153.5,632C 158.757,630.574 163.257,631.741 167,635.5C 167.167,650.844 167.667,666.178 168.5,681.5C 175.604,684.935 180.604,690.268 183.5,697.5 Z"/>
  </g>
  <g transform="matrix(0.5303769111633301, 0, 0, 0.5658650398254395, -21.757644653320312, -58.70857238769531)" style="">
    <path style="opacity: 1; fill: rgb(253, 213, 8);" d="M 880.5,683.5 C 873.633,683.04 866.633,683.54 859.5,685C 857.752,686.87 855.585,688.037 853,688.5C 853.209,692.459 851.375,694.126 847.5,693.5C 847.808,695.924 847.474,698.257 846.5,700.5C 836.456,700.799 826.123,700.799 815.5,700.5C 815.5,701.5 815.5,702.5 815.5,703.5C 818.167,703.5 820.833,703.5 823.5,703.5C 823.5,704.5 823.5,705.5 823.5,706.5C 818.186,705.841 812.853,705.174 807.5,704.5C 799.809,705.504 792.142,706.504 784.5,707.5C 775.399,706.738 766.399,705.404 757.5,703.5C 742.107,703.92 726.774,704.92 711.5,706.5C 711.5,705.5 711.5,704.5 711.5,703.5C 708.833,703.5 706.167,703.5 703.5,703.5C 703.5,698.167 703.5,692.833 703.5,687.5C 698.167,687.5 692.833,687.5 687.5,687.5C 687.665,691.182 687.499,694.848 687,698.5C 684.154,700.293 683.988,702.127 686.5,704C 684.167,708.667 681.833,708.667 679.5,704C 678.207,703.51 676.873,703.343 675.5,703.5C 675.249,706.909 675.583,710.242 676.5,713.5C 678.781,714.185 681.114,714.351 683.5,714C 684.5,715 685.5,716 686.5,717C 739.17,717.401 791.836,717.401 844.5,717C 846.618,718.549 848.951,719.716 851.5,720.5C 851.167,721.167 850.833,721.833 850.5,722.5C 851.853,723.524 852.52,724.857 852.5,726.5C 854.695,727.608 856.695,727.441 858.5,726C 855.706,724.964 855.206,723.464 857,721.5C 857.837,723.007 859.004,723.507 860.5,723C 859.663,721.989 859.33,720.822 859.5,719.5C 868.833,719.5 878.167,719.5 887.5,719.5C 887.833,716.833 888.167,714.167 888.5,711.5C 890.199,711.34 891.866,711.506 893.5,712C 891.579,713.241 891.246,714.741 892.5,716.5C 893.167,715.5 893.833,714.5 894.5,713.5C 895.662,708.533 895.829,703.533 895,698.5C 894,699.833 893,699.833 892,698.5C 891.443,696.385 890.609,694.385 889.5,692.5C 889.957,691.702 890.624,691.369 891.5,691.5C 901.873,705.956 900.207,719.122 886.5,731C 880.341,734.706 873.674,736.54 866.5,736.5C 856.24,734.569 848.907,728.902 844.5,719.5C 789.669,718.501 734.669,718.168 679.5,718.5C 677.629,718.141 676.129,717.141 675,715.5C 670.394,704.925 673.894,699.259 685.5,698.5C 685.5,693.167 685.5,687.833 685.5,682.5C 695.167,682.5 704.833,682.5 714.5,682.5C 714.5,687.833 714.5,693.167 714.5,698.5C 730.535,698.212 746.535,698.545 762.5,699.5C 765.135,701.328 768.135,702.495 771.5,703C 783.659,704.756 795.325,703.256 806.5,698.5C 819.184,698.832 831.851,698.499 844.5,697.5C 852.556,682.813 864.556,678.146 880.5,683.5 Z"/>
  </g>
  <g transform="matrix(0.5303769111633301, 0, 0, 0.5658650398254395, -21.757644653320312, -58.70857238769531)" style="">
    <path style="opacity:1" fill="#6c7076" d="M 299.5,737.5 C 309.167,737.5 318.833,737.5 328.5,737.5C 328.5,743.5 328.5,749.5 328.5,755.5C 328.768,757.099 328.434,758.432 327.5,759.5C 327.5,752.5 327.5,745.5 327.5,738.5C 318.167,738.5 308.833,738.5 299.5,738.5C 299.5,771.167 299.5,803.833 299.5,836.5C 298.167,803.5 298.167,770.5 299.5,737.5 Z"/>
  </g>
  <g transform="matrix(0.5303769111633301, 0, 0, 0.5658650398254395, -21.757644653320312, -58.70857238769531)" style="">
    <path style="opacity:1" fill="#6b7177" d="M 685.5,738.5 C 694.986,737.506 704.652,737.173 714.5,737.5C 714.832,770.004 714.498,802.338 713.5,834.5C 713.5,802.5 713.5,770.5 713.5,738.5C 704.167,738.5 694.833,738.5 685.5,738.5 Z"/>
  </g>
  <g transform="matrix(0.5303769111633301, 0, 0, 0.5658650398254395, -21.757644653320312, -58.70857238769531)" style="">
    <path style="opacity: 1;" d="M 327.5,759.5 C 327.335,762.518 327.502,765.518 328,768.5C 328.833,770.667 330.333,772.167 332.5,773C 448.5,773.667 564.5,773.667 680.5,773C 682.066,772.392 683.4,771.558 684.5,770.5C 685.494,760.013 685.828,749.346 685.5,738.5C 694.833,738.5 704.167,738.5 713.5,738.5C 713.5,770.5 713.5,802.5 713.5,834.5C 711.403,855.716 701.07,871.383 682.5,881.5C 675.522,884.581 668.189,886.748 660.5,888C 557.5,888.667 454.5,888.667 351.5,888C 344.7,887.677 338.367,885.843 332.5,882.5C 313.779,872.769 302.779,857.435 299.5,836.5C 299.5,803.833 299.5,771.167 299.5,738.5C 308.833,738.5 318.167,738.5 327.5,738.5C 327.5,745.5 327.5,752.5 327.5,759.5 Z"/>
  </g>
  <g transform="matrix(0.5303769111633301, 0, 0, 0.5658650398254395, -21.757644653320312, -58.70857238769531)" style="">
    <path style="opacity:1" fill="#f8f9fa" d="M 498.5,797.5 C 517.386,794.94 530.552,802.273 538,819.5C 542.292,844.704 531.792,859.037 506.5,862.5C 482.884,859.635 472.384,846.301 475,822.5C 478.589,810.08 486.423,801.747 498.5,797.5 Z"/>
  </g>
  <g transform="matrix(0.5303769111633301, 0, 0, 0.5658650398254395, -21.757644653320312, -58.70857238769531)" style="">
    <path style="opacity: 1;" d="M 501.5,814.5 C 519.003,813.856 525.17,821.856 520,838.5C 511.519,847.235 502.852,847.568 494,839.5C 488.981,828.734 491.481,820.4 501.5,814.5 Z"/>
  </g>
</svg>